<?xml version="1.0" standalone="no"?>
<!DOCTYPE svg PUBLIC "-//W3C//DTD SVG 20010904//EN"
 "http://www.w3.org/TR/2001/REC-SVG-20010904/DTD/svg10.dtd">
<svg version="1.0" xmlns="http://www.w3.org/2000/svg"
 width="1024.000000pt" height="1024.000000pt" viewBox="0 0 1024.000000 1024.000000"
 preserveAspectRatio="xMidYMid meet">

<g transform="translate(0.000000,1024.000000) scale(0.100000,-0.100000)"
fill="#000000" stroke="none">
<path d="M4455 5994 c-186 -28 -354 -87 -497 -175 -137 -85 -229 -160 -475
-391 -289 -271 -583 -422 -788 -405 -138 12 -259 96 -322 224 -54 112 -37 293
37 377 60 68 187 112 280 97 138 -22 253 -148 254 -278 1 -61 14 -55 27 13 21
109 -25 229 -121 317 -81 74 -145 100 -256 105 -151 7 -257 -39 -367 -157 -95
-104 -137 -207 -157 -386 -22 -204 28 -397 145 -560 58 -82 134 -149 253 -223
154 -97 331 -155 539 -177 35 -4 61 -11 58 -15 -3 -5 -35 -12 -72 -16 -145
-15 -371 55 -576 180 l-58 35 35 -40 c48 -57 97 -97 196 -161 152 -99 291
-156 466 -193 122 -26 346 -31 484 -11 137 20 400 91 522 140 168 69 371 188
505 298 29 24 75 61 102 83 28 22 53 48 56 58 4 9 10 15 15 12 4 -3 23 13 41
35 18 22 39 40 46 40 7 0 13 3 13 8 0 4 36 44 79 88 l79 82 21 -29 c53 -72
175 -200 266 -281 285 -253 685 -447 1080 -525 131 -25 477 -25 595 1 248 54
443 156 615 321 80 77 83 85 11 33 -21 -15 -43 -28 -47 -28 -4 0 -61 -24 -126
-54 -133 -61 -237 -87 -345 -85 -143 2 -142 13 2 36 358 57 652 250 776 508
55 115 79 259 71 435 -5 136 -28 212 -91 309 -110 168 -255 249 -430 239 -112
-7 -186 -37 -258 -106 -80 -76 -111 -143 -110 -235 0 -40 7 -90 16 -112 l16
-40 -5 45 c-4 36 1 57 26 110 37 79 68 114 134 148 43 23 62 27 141 27 88 0
92 -1 148 -38 223 -148 182 -496 -72 -615 -52 -25 -68 -27 -177 -27 -99 0
-132 4 -189 23 -207 69 -304 136 -647 448 -183 166 -241 213 -361 290 -104 68
-231 129 -343 164 -98 32 -291 39 -406 15 -105 -21 -230 -68 -270 -103 -30
-25 -32 -25 -57 -8 -55 36 -189 96 -247 111 -61 16 -225 27 -280 19z m291
-189 c101 -30 150 -56 211 -112 l41 -38 33 34 c40 42 193 114 273 130 85 16
241 14 332 -5 199 -41 390 -165 668 -433 164 -158 292 -270 384 -338 75 -55
108 -81 87 -71 -80 40 -274 167 -360 235 -305 243 -476 359 -633 428 -174 76
-362 103 -505 71 -84 -19 -277 -108 -278 -128 0 -7 -5 -4 -10 8 -13 26 -177
109 -248 125 -83 18 -277 6 -387 -25 -166 -46 -426 -190 -579 -321 -134 -116
-426 -322 -515 -364 l-25 -12 25 18 c86 62 272 228 365 328 120 127 263 252
366 320 74 49 225 126 283 145 143 46 321 48 472 5z"/>
</g>
</svg>
